/* XPM */
static char *aa8f4643b95c4e168b37548fd7077a70kefeME204UGw5XEi[] = {
/* columns rows colors chars-per-pixel */
"48 48 214 2 ",
"   c #3D130D",
".  c #3E1A0E",
"X  c #391507",
"o  c #3F0E11",
"O  c #3F1513",
"+  c #3D121A",
"@  c #351A1D",
"#  c #391716",
"$  c #291919",
"%  c #3D0D22",
"&  c #2E1C21",
"*  c #281B28",
"=  c #321524",
"-  c #35132B",
";  c #3D122C",
":  c #3A1727",
">  c #2E2020",
",  c #4D0C0E",
"<  c #410F0E",
"1  c #55050C",
"2  c #5C050C",
"3  c #530B0D",
"4  c #5D090D",
"5  c #44130E",
"6  c #401A0D",
"7  c #440E15",
"8  c #4D0C14",
"9  c #430E1A",
"0  c #4C0E1B",
"q  c #570710",
"w  c #5C0512",
"e  c #530C13",
"r  c #5B0A12",
"t  c #520D1A",
"y  c #5A0A1A",
"u  c #59071B",
"i  c #431413",
"p  c #4D1114",
"a  c #431813",
"s  c #44141B",
"d  c #49131A",
"f  c #521119",
"g  c #61060B",
"h  c #630A0C",
"j  c #620607",
"k  c #620513",
"l  c #630A12",
"z  c #650818",
"x  c #440D25",
"c  c #440D2A",
"v  c #480E24",
"b  c #520E23",
"n  c #431125",
"m  c #43132C",
"M  c #491225",
"N  c #471230",
"B  c #481331",
"V  c #7A373E",
"C  c #772F48",
"Z  c #6C3A4A",
"A  c #6B3849",
"S  c #763346",
"D  c #793346",
"F  c #733A45",
"G  c #7B3844",
"H  c #74334C",
"J  c #7B344B",
"K  c #77394D",
"L  c #6E3A52",
"P  c #673D55",
"I  c #753650",
"U  c #7C3652",
"Y  c #733952",
"T  c #783850",
"R  c #8E2B2E",
"E  c #96262E",
"W  c #9A252E",
"Q  c #94292E",
"!  c #9A282E",
"~  c #8D2C33",
"^  c #872E3D",
"/  c #8D2C3A",
"(  c #952634",
")  c #9B2632",
"_  c #932B34",
"`  c #9B2933",
"'  c #95243D",
"]  c #9A253C",
"[  c #932B3B",
"{  c #9B2A3A",
"}  c #853134",
"|  c #8D3132",
" . c #933034",
".. c #92313A",
"X. c #A12634",
"o. c #A02A34",
"O. c #A02B3B",
"+. c #A12638",
"@. c #8C2C41",
"#. c #8D2641",
"$. c #9C2742",
"%. c #942A42",
"&. c #9B2A42",
"*. c #902541",
"=. c #B73D47",
"-. c #B53E4B",
";. c #BB3D4C",
":. c #B93B47",
">. c #AD3E55",
",. c #AB3E5D",
"<. c #B43E52",
"1. c #BB3E52",
"2. c #B23D58",
"3. c #8C4E5D",
"4. c #9E4655",
"5. c #9F465B",
"6. c #934B5B",
"7. c #9C495C",
"8. c #95475F",
"9. c #8D505F",
"0. c #97565E",
"q. c #AC424C",
"w. c #B4424D",
"e. c #BB414D",
"r. c #A54455",
"t. c #AD4354",
"y. c #A3465B",
"u. c #AB445A",
"i. c #A3495B",
"p. c #AB495A",
"a. c #A94957",
"s. c #B34254",
"d. c #BB4354",
"f. c #B2445A",
"g. c #B84559",
"h. c #BE5A54",
"j. c #B65C5E",
"k. c #BC5C5D",
"l. c #BF5659",
"z. c #B9615F",
"x. c #9D4961",
"c. c #9A4660",
"v. c #865060",
"b. c #855762",
"n. c #AE5F68",
"m. c #B45D63",
"M. c #BC5C63",
"N. c #B55F68",
"B. c #BC5E69",
"V. c #9E646C",
"C. c #936C6F",
"Z. c #AB6266",
"A. c #A5626B",
"S. c #AA626A",
"D. c #A5686F",
"F. c #AA6869",
"G. c #B46166",
"H. c #BB6165",
"J. c #B5626A",
"K. c #BB616A",
"L. c #A46A71",
"P. c #B96670",
"I. c #CC4F4B",
"U. c #D14F4F",
"Y. c #CD544D",
"T. c #C7584F",
"R. c #D2544D",
"E. c #D4584C",
"W. c #C74F50",
"Q. c #C94E50",
"!. c #C14052",
"~. c #D04F53",
"^. c #C65655",
"/. c #CD5554",
"(. c #C45A56",
"). c #CC5955",
"_. c #C5565C",
"`. c #CC565B",
"'. c #C45A5B",
"]. c #CB5A5B",
"[. c #D25553",
"{. c #D85652",
"}. c #D35954",
"|. c #D85953",
" X c #D2565A",
".X c #D1595A",
"XX c #D95958",
"oX c #C65661",
"OX c #CB5562",
"+X c #C35B63",
"@X c #CB5963",
"#X c #C2566B",
"$X c #C25C69",
"%X c #CD5B68",
"&X c #CA5768",
"*X c #D15662",
"=X c #D15865",
"-X c #C06063",
";X c #CF8E8C",
":X c #D28F8F",
">X c #CE938A",
",X c #D2928F",
"<X c #D1958D",
"1X c #D4928E",
"2X c #D3998E",
"3X c #C88F96",
"4X c #CD9494",
"5X c #CB949B",
"6X c #CD9894",
"7X c #D79391",
"8X c #D29493",
"9X c #D99596",
"0X c #D3939A",
"qX c #DFC2C4",
/* pixels */
"$ @ i i   i d i < i i a   .   O X 6   i   i 9 9 o d i i O a i   X .   i   a + s 7 d i i 5 O & * ",
"@ C.0X1X1X1X8XV F.7X:X1X8X<X8X<X2X>X7X1X<X8X0XG F.;X9X:X9X>X<X<X2X>X7X1X<X4X0XG S.9X7X7X1X4XqX> ",
"9 0.j.'.'.k.M...'.(.].'.'.'.(.(.h.(._.].(.k.M.~ k.'.'.'.'.'.(.(.(.(._.'.(.k.M.~ +Xl.'.(.(.z.6XO ",
"M 6.+X`./.].M.~ _.`.^.[. X/.[.).)./. X X`.].M...'.(.].(.(.^.)..X X/. X`.`.].M...@X)..X).`.'.8Xi ",
"+ 9.B.OX@XM.S.8 B.$X+X@X@X`.OXOX`.OX=XOXOX+XZ., G.-Xk.M.G.H.k._._.OX@XOXOX+XS., m.+X_.].oXB.L.# ",
": 0 ^ ` ) [ e t k [ ( ` ( { +.) ) ` ) ) ` R e 3 g R ~ g 1 4 _ E ` ` ) ) o.( e 3 g Q E ` { @.9 @ ",
"m S a.w.;.<.t.t.s.-.e.-.{ `.`. X X[./.`.^.^.(.(.^.).^.'.h M._. X X[./.[.[.)._.(.).`.).^.) M.5X+ ",
"x J t.-.1.;.1.1.;.!.:.-.` OX`.[.R.R.R.}.}././.[.{.{.[.^.~ k..X[.[.R.R.{.{.[.[.[.[.[.[.).` M.0Xi ",
"x J t.e.;.1.;.;.=.e.=.e.( +X).[.R.{.R.[.[.[.[.[.Y.|.R.^.| k.`.[.Y.}.Y./.R.{.[.[.Y.}.Y.)._ G.8Xi ",
"M S i.t.s.w.-.e.e.-.w.q.z M.].`.).^.'.].^.^. X[.}./.).'.g j.'..X`.^.'.'.^.). X).).).).(.g Z.D.d ",
"x Y 0 t w [ ` ) ) _ / 1 r q [ ) ) _ e e 4 _ ) X.W ` ( g e r _ ) ) _ e e g _ ) ) ` E R h 1 f F 9 ",
"x L v.0 J.M.].`.@X_.M.J.n.m.oXOXOX+XA.t N.M.OX*X X`.+XM.G.m._.@XOX$XS.t N.+XoX@X`.@Xk.j.N.Z.5Xn ",
"c I 8.^ +X^.).[./.).`._.].^./.}./.].+X/ _.`./.[././.^.`.].).[.[./.].+X_ _.`.)./.)./.).).].k.8X  ",
"c T x.[ `.[.R.R.R.{.[.[.Y.}.E.R.|.Q.@X_ `.Y.R.{.R.}.[.[.Y.}.R.R.}.W.@X` `.Y.R.{.[.Y.[.[.R.(.1X  ",
"c T x./ `.}.R.}.R.{.[.|.R.Y.{.{.R..X+X_ ^.}.{.R.Y.}.[./.}.Y.{.R.R..X+X_ ).{.{.R.R.[.[.|.R.].1Xi ",
"x H 8.z oX`.'.(.)./.[././././.[./.(.M.2 './.).).)./.`. X/.[.[.[.[.).M.2 '.^.'.(.'.`.).)..X(.Z.i ",
"% Z b u w ^ t e 2 _ Q ! ! ` ) ) E  .1 r j Q [ { ) ` W ` E ` W ) W _ r 3 g } t 8 1 [ ( ` ` _ G 9 ",
"n K c.7.i.7.3.8 J.+X_._.@X`.OX@X@X+XN.m.k.+X#X[ &XOX`.`.%X_.*X`.@X_.m.m.H.G.A.0 P.M.oX`.`.M.0Xs ",
"x S i.t.s.t.r./ _. X X X/..X[.[.[.`._.@X`.].@X` `..X[./. X X~.|.[. X_.'.(.^.+X( _.`.)..X^.'.1Xi ",
"n S p.<.<.s.a./ @X`.`.`.].^..X[. X X*X`.`.^.$X~ _.^.`.].].`.[.|. X`.`.`.`.`.+X_ `.)..X/.(.k.8Xi ",
": Z y.f.f.u.6.f N.M.+X-XN.M.'.`.OXOX&X&X&X$XS.p N.M.M.M.m.B.+X`.`.OX&X@X`.+XA.t J.M.+Xk.m.Z.L.7 ",
"= n @.&.] / e 8 r ~ ~ g r 1 _ ! ) ) ) ) ) ( e , r ~ ~ g r r ( ` ) ) ) E o.( e 8 4 ~ _ g 3 t F 9 ",
"m J u.;.1.<.s.t.w.d.-.w.g M.]./.[.}./. X[.).(.(.'.].`.(.h H._. X X). X[.[.`.'.].`.).^.h.4 S.3Xs ",
"c J t.;.1.;.d.;.;.;.e.w.~ k.^.{.R.R.R.R.{.R.[.[././.[./.| k.`.[.[.[.[.[.{.{.[.|.[.{.}.(.| Z.5Xi ",
"c U t.e.-.e.w.;.:.!.;.s.~ M.].[.Y.E.R.R.R.{.[.[.Y.}.R.).~ k.).R.R.{.R.[.R.[.[.[.R.}.Y.).~ G.4Xi ",
"N H i.t.t.w.-.-.d.-.s.q.l m._.`.).(.'.].^./..X)..X/.[.).g j.`..X[./.'.'.(.^.`.).)..X).(.g Z.L.s ",
"c Y 0 t 1 ..` ) ] { [ 4 r q [ ) ` ~ e e g _ ( ) W ` Q g e r _ ` ! _ 3 3 4 ~ ( ` ` W Q h 3 f F + ",
"c Y 3.t G.M.OX`.%XoX+XM.m.m.+X@X_.M.A.t N.+XoXOXOX`.+XM.G.m.l.@X`.+XS.t N.M.+X@XOX@X'.j.m.Z.5Xs ",
"c T 7.~ './.[.[.).). X/.).T./..X).].$X[ _.`.^./.[.[.).`.].).).[.[.`.$X_ '.).[.[.)././..X`.k.8X  ",
"x J y.[ `.R.R.R.R.}.[.R.R.E.R.R.|.Q.@X` `.Y./.}.R.{.[.{.R.{.{.R.|.Q.@X` `.R.R.{.E.Y.{.{.[.(.1X5 ",
"x T x./ `.}.{.{.Y..X[.}.R.Y.{.|.R..X$X_ ^.}.E.Y.R.{.[./.}.Y.[.Y.R..XM.~ ^.|.{.R.R.[.[.}.Y.'.1Xp ",
"x H 6.z +X`.`.`.)./.).).[.[./.[.[.).M.g '.(.(.(.)./.`..X/.[.`.).[.(.N.4 '.^. X X X X`.`.].k.Z.7 ",
"% Z 0 y w [ %.' E ` E ` W +.) +.W  .r 1 2 } p 8 2 _ ) { ) ) ` ! E  .1 r g _ ] ] ( O.) ) ` ~ V 7 ",
"n Z 6.4.p.p.,.&.@X`.`.%X@XOX=X`.@X'.M.m.H.J.V.0 G.+X&XOX%XOXOX@X].'.M.m.k.M.#X$.%XOX%XOX`.M.0Xi ",
"x J y.s.s.<.s.{ `. X`.`./.`./.}./. X`.^.^._.K.~ _.).)..X)./..X).).^._.].).].&X) )././. X).'.<X  ",
"n S u.d.<.s.t.( ].^.^.).].'.T.T. X[. X[. X].M./ ].[././.[. X/..X X X.X`.).^.+X~ '.(.).`.].k.<X  ",
"- Y y.f.f.y.6.8 N.M.M.M.m.N.+XoX&X&XOX*X`.$XA.t M.'.].`.OXOXOXOXOXOX@X&X@X$Xn.t m.k.M.m.N.S.D.d ",
"; x @.] ' @.t 8 l ~ ~ g r q ( ` ) ` ) W o.( e e l _ ! ! ) O.) ` ` W ) ) ` ( r r 4 | ~ l e 8 F 9 ",
"c J t.-.d.s.t.t.s.e.w.q.k M.`./. X).}.R./.`._.+X^.)././.` `.`. X[. X/.[.|.[._.(.(.).^._.2 S.5Xi ",
"c J s.;.;.;.-.-.;.;.;.-.[ M.).{.[.R.R.R.R.[.[.[./.Y.R./.` _..X[.{.R.{.R.{.R.[.[.[.[.[.)._ J.4XO ",
"% J t.:.:.e.-.w.:.e.:.e.~ M.`./.Y.}.Y.R.[.|.[.[.Y..XY.)._ +X`./.R.}.[.[.[.{.R.R.I.XXU..X( G.4XO ",
"m K 4.q.d.<.<.s.d.-.w.q.z M._.`.`.^.'.(.`.`./. X.X^.).(.k m._.`..X^._.'.].^./..X.X`. X_.h Z.V.i ",
"; A d 8 k %.' $.] ] / q y w [ ( ( [ e e k [ ( ) ) ` ~ k y y [ _ ( / e t w [ ( ] ] { / w e t F + ",
"m L b.t y.u.f.2.g.>.r.i.4.r.t.s.s.u.6.t y.>.s.s.s.s.t.r.5.4.r.s.t.r.6.t 7.r.f.s.2.t.a.i.7.6.5Xs ",
"c T 8.@.t.s.d.1.1.1.s.s.g.q.w.w.-.g.t.[ 2.1.d.-.-.<.-.s.s.s.-.e.<.g.u.%.t.s.s.-.w.w.w.s.s.a.8Xi ",
"; I c.#.p.t.t.t.u.f.t.t.q.t.t.t.a.u.p.*.u.t.t.t.t.f.t.s.r.u.s.t.t.u.p.#.u.t.t.t.t.q.t.f.t.i.4XO ",
"- P T J C D D J D J J J D D J J D J H U J J S D J U J J U H J D S J H U J J C J J D D J C H b.@ ",
"- - c x v x x n n x x x n x c c c x c c x x n n c c c c % c c c x x c c c c c c x x c x B ; = & "
};
